<svg class="svg-icon" style="width: 1em; height: 1em;vertical-align: middle;fill: currentColor;overflow: hidden;" viewBox="0 0 1024 1024" version="1.1" xmlns="http://www.w3.org/2000/svg"><path d="M948.335205 427.208848l-380.142903-298.109562c-32.507368-25.716708-83.436294-25.686009-115.878171 0L75.055928 427.267177c-12.885472 10.210549-15.08865 28.930913-4.909823 41.817408 10.177803 12.889565 28.931936 15.093766 41.823548 4.91494l12.202926-9.647731 0 360.52817c0 51.106981 52.956096 89.295745 100.341313 89.295745l595.321684 0c46.790676 0 78.253248-35.895535 78.253248-89.295745L898.088824 463.46254l13.485129 10.564613c5.477758 4.287653 11.908214 6.340405 18.3356 6.340405 8.843412 0 17.590634-3.89675 23.460318-11.399631C963.513906 456.04971 961.251376 437.328323 948.335205 427.208848L948.335205 427.208848zM600.426447 792.496415l0 62.148455-59.500139 0-59.530838 0-59.563584 0 0-62.148455L421.831886 688.014806c0-34.618449 27.950586-71.853491 89.300862-71.853491 61.374836 0 89.293699 37.235043 89.293699 71.853491L600.426447 792.496415 600.426447 792.496415zM600.426447 792.496415"  fill="#747474" /></svg>