<svg class="svg-icon" style="width: 1em; height: 1em;vertical-align: middle;fill: currentColor;overflow: hidden;" viewBox="0 0 1024 1024" version="1.1" xmlns="http://www.w3.org/2000/svg"><path d="M345.6 32H102.4C64 32 32 64 32 102.4v819.2C32 960 64 992 102.4 992h243.2c38.4 0 70.4-32 70.4-70.4V102.4C416 64 384 32 345.6 32zM320 880H128c-25.6 0-48-22.4-48-48s22.4-48 48-48h192c25.6 0 48 22.4 48 48s-22.4 48-48 48z m0-640H128c-25.6 0-48-22.4-48-48S102.4 144 128 144h192c25.6 0 48 22.4 48 48s-22.4 48-48 48z m675.2 617.6L870.4 144c-6.4-38.4-41.6-64-80-57.6L550.4 128c-38.4 6.4-64 41.6-57.6 80l124.8 713.6c6.4 38.4 41.6 64 80 57.6l240-41.6c38.4-6.4 64-44.8 57.6-80z m-384-528c-25.6 3.2-51.2-12.8-57.6-38.4s12.8-51.2 38.4-57.6l188.8-32c25.6-3.2 51.2 12.8 57.6 38.4 3.2 25.6-12.8 51.2-38.4 57.6l-188.8 32zM892.8 832L704 864c-25.6 3.2-51.2-12.8-57.6-38.4-3.2-25.6 12.8-51.2 38.4-57.6l188.8-32c25.6-3.2 51.2 12.8 57.6 38.4 6.4 28.8-12.8 54.4-38.4 57.6z" fill="#FFFFFF" /></svg>